<?xml version="1.0" encoding="utf-8"?>
<!-- Generator: Adobe Illustrator 26.1.0, SVG Export Plug-In . SVG Version: 6.00 Build 0)  -->
<svg version="1.1" id="Layer_1" xmlns="http://www.w3.org/2000/svg" xmlns:xlink="http://www.w3.org/1999/xlink" x="0px" y="0px"
	 viewBox="0 0 1431 435" style="enable-background:new 0 0 1431 435;" xml:space="preserve">
<style type="text/css">
	.st0{fill:#6BBA61;}
	.st1{fill:#5CAB5C;}
	.st2{fill:#4F9E59;}
	.st3{fill:#63C7D4;}
	.st4{fill:#54A159;}
	.st5{fill:#61BFD6;}
	.st6{fill:#66B261;}
	.st7{fill:#4D9C57;}
	.st8{fill:#5CB8D9;}
	.st9{fill:#66CFD1;}
	.st10{fill:#57A6DE;}
	.st11{fill:#59ADDB;}
	.st12{fill:#69D1D1;}
	.st13{fill:#549EE0;}
	.st14{fill:#54A6DE;}
	.st15{fill:#54A1DE;}
	.st16{fill:#54A35C;}
	.st17{fill:#6BDBCC;}
	.st18{fill:#57A3DE;}
	.st19{fill:#69B861;}
	.st20{fill:#4A9459;}
	.st21{fill:#4A9659;}
	.st22{fill:#59A65C;}
	.st23{fill:#57A35C;}
	.st24{fill:#529E5E;}
	.st25{fill:#66D4D1;}
	.st26{fill:#78C76B;}
	.st27{fill:#69D9CF;}
	.st28{fill:#6EBD66;}
	.st29{fill:#57A3E0;}
	.st30{fill:#54A8D9;}
	.st31{fill:#59B0D9;}
	.st32{fill:#459154;}
	.st33{fill:#73C266;}
	.st34{fill:#479454;}
	.st35{fill:#5CABDB;}
	.st36{fill:#73C269;}
	.st37{fill:#78C966;}
	.st38{fill:#54A15C;}
	.st39{fill:#4A9957;}
	.st40{fill:#73C466;}
	.st41{fill:#7DCF6B;}
	.st42{fill:#75C469;}
	.st43{fill:#7DCC6E;}
	.st44{fill:#63B061;}
	.st45{fill:#7ACC6B;}
	.st46{fill:#66B561;}
	.st47{fill:#61B05E;}
	.st48{fill:#69BA61;}
	.st49{fill:#70DECF;}
	.st50{fill:#6BD9CF;}
	.st51{fill:#70D9D1;}
	.st52{fill:#70E0CF;}
	.st53{fill:#6EDBCF;}
	.st54{fill:#70E0CC;}
	.st55{fill:#6EDECC;}
	.st56{fill:#63B25E;}
	.st57{fill:#70BF66;}
	.st58{fill:#78C769;}
	.st59{fill:#70C266;}
	.st60{fill:#6EDBCC;}
	.st61{fill:#73E0CF;}
	.st62{fill:#6EDECF;}
	.st63{fill:#70DBCC;}
	.st64{fill:#70E3CC;}
	.st65{fill:#75C769;}
	.st66{fill:#7AC96B;}
	.st67{fill:#54A359;}
	.st68{fill:#5CADDE;}
	.st69{fill:#5EB8D9;}
	.st70{fill:#66C9D4;}
	.st71{fill:#63C2D6;}
	.st72{fill:#4F9C59;}
	.st73{fill:#5EAB5C;}
	.st74{fill:#61A8E0;}
	.st75{fill:#C2824A;}
	.st76{fill:#B0733D;}
	.st77{fill:#B27540;}
	.st78{fill:#AB6E3B;}
	.st79{fill:#A36636;}
	.st80{fill:#B87A42;}
	.st81{fill:#BA8045;}
	.st82{fill:#A16333;}
	.st83{fill:#9C5E2E;}
	.st84{fill:#A86B38;}
	.st85{fill:#8F5429;}
	.st86{fill:#945729;}
	.st87{fill:#99592E;}
	.st88{fill:#C48A4D;}
	.st89{fill:#C98F4F;}
	.st90{fill:#24668A;}
</style>
<path class="st0" d="M235.4,144.2c1.2,1.1,2.4,2.3,3.6,3.4c4.5,0,8.7,1.5,12.9,2.8c4.9,10.1-7.3,20.8,1.1,30.7
	c0.5,1.3,0.8,2.8,0.8,4.2c-0.3,2.8-1.4,5.4-2.6,7.9c-1,2.4-1.8,4.9-2.2,7.5c-0.3,2-0.8,4-1.3,5.9c-0.8,2.7-1.1,5.5-0.3,8.2
	c0.4,1.2,0.7,2.5,0.9,3.8c0.3,1.2,0.5,2.5,0.6,3.7c0.4,2.5,1.1,4.8,2.2,7.1c1.2,2.3,2.7,4.5,4.1,6.7c2,3.1,2.9,6.5,1.9,10.1
	c-2,4.6-1.9,9,0.5,13.6c1.2,2.3,3.7,6.1-2.5,5.8c-8.8,6.5-17.6,13-26.5,19.5c-11.8,0.8-10-5.2-6.1-12.2c3.4-3.5,6.7-7,10.1-10.4
	c1-7.4-2.6-5.6-6.5-3.3l-1-0.6c-8.9,2.8-11.9-0.3-9.3-9.2c1.6-1.8,4.8-4.8,4.5-5.2c-2.8-3.8-7.5-0.7-11.1-2.4
	c-3.9-3.6-7.5-7.2-3.4-12.9c2.1-1.1,4.3-2.3,6.4-3.4c2.7-2.9,6.3-4.1,10.1-4.7c1.5-0.2,3.1,0.8,4.6-0.3c-1.6-0.5-2.8-1.5-3.6-3
	c-1.5-4.2-0.8-7.9,2.3-11.2c0.4-0.8,0.9-1.5,1-2.3c0.1-0.3-0.7-0.7-1-1.1c-4.5-5.5-4.3-11-0.1-16.5c0-0.9-0.1-1.8-0.1-2.6
	c-4.8-7.1,2.9-13.8,0.7-20.8c-0.2-1.5-0.2-3-0.2-4.6C227.8,152.8,227,145.6,235.4,144.2"/>
<path class="st1" d="M337.6,287.5c-7,7.8-0.1,15.1,1.3,22.3c2.2,11.6,6.2,22.9,9.4,34.3c-3.3,6.4-8,7.8-14,3.5
	c-6.7-21.8-13.3-43.6-20-65.4c-1.3-1.4-1.8-4.1-3.5-4.3c-1.1-0.1-0.8,3.1-2.2,4.4c-0.4,12-0.7,24-1.1,36
	c-3.4,10.9,1.2,22.5-2.6,33.4c-2.9,1.4-5.6,1.2-8-1.1c-4.4-20.3-1.1-40.8-1.9-61.2c-0.3-7.6,0.2-15.2-4.1-21.9
	c-0.6-1.9-0.5-3.7,0.3-5.5c11-6.1,23.1-4.4,35-5C335.9,264.9,339,275.4,337.6,287.5"/>
<path class="st2" d="M396.9,144.1c-0.1,1.3-0.1,2.6-0.2,4c-1.8,26.6-1,53.2-1.3,79.7c-0.1,6.6-0.4,13.1-4.8,18.5
	c2.1,2.2,4.3,4.3,6.4,6.5c4.2,6.7,6.1,13.4-0.2,20.1c-7.6-3.7-15.2-7.3-22.8-11c-3.8-4.9-2.1-10.4-2.1-15.8
	c0.2-38.7,1.4-77.4-1-116.1c0.5-4.4,2.4-7.9,6.7-9.6c3.8,1.2,6.3-1.9,9.5-2.9C396,124.2,394.1,135,396.9,144.1"/>
<path class="st3" d="M170,286.5c1.8,7-2.8,9.6-7.9,12.2c-12.2,6-24.3,12.3-36.5,18.5c-21.1,10.7-21.3,10.6-36.1-11.1
	c20.5-10.4,40.9-20.7,61.2-31.3c4.4-2.3,8-3.1,11.8,0.5c3.1,0.5,4.5,3,6.1,5.3C169.6,282.4,170.1,284.4,170,286.5"/>
<path class="st4" d="M374,127.7c6.9,32.2,1.9,64.8,3.2,97.2c0.5,12.4,1.5,25-3.2,37c-1,0.4-2,0.7-3.1,0.9
	c-9.7-0.9-11.1-8.7-13.1-15.9c-1.7-6.2-1.6-12.7-2.9-18.9c0-0.8,0-1.7,0-2.5c0.1-0.8,0.2-1.7,0.3-2.5c2.4-8.1,1.3-16.3,0.4-24.4
	c0.1-1.8,0.5-3.5,1.2-5.1c5-14.6,1.6-29.8,2.9-44.6C360.5,139.2,360.5,128.8,374,127.7"/>
<path class="st5" d="M196.6,315.3c3.7,4.9,0.2,7.7-3.1,10.7c-12.1,10.8-24,22-36.4,32.6c-10.6,9.1-14.5-3.6-20.8-7.4
	c-8-4.9-1.5-8.8,2.2-12.3c11.1-10.3,22.5-20.4,33.5-30.9c4.3-4.1,8.2-7.1,13.9-2.7C191.8,306.1,195.2,309.6,196.6,315.3"/>
<path class="st6" d="M291.7,262.8c0,0.9,0,1.9,0,2.8c6.1,3.3,4.9,9.1,4.9,14.4c0,22.8,0.2,45.6-0.1,68.4c-0.5,2.5-1.9,3.2-4.2,2.3
	V279c-11.2,22-22.1,43.8-23.9,68.7c-6.6,4.6-12.2,4.1-16.3-3.5c6.6-21.7,13.2-43.5,19.8-65.2c-8.3-7.4-15.9-14.9-7.2-26.8
	c4-2.1,7.6-0.3,11.3,1C281.5,255.9,288.4,256.4,291.7,262.8"/>
<path class="st7" d="M390.6,246.3c0-27,0-54.1-0.2-81.1c-0.1-6.7,0.1-13,6.3-17.1c3.4-1.1,6.8-2.3,10.2-3.4c6.4,6.9,4.1,15.3,4,23.3
	c-2.4,9.8,0.9,19.6,0.3,29.4c0.1,0.6,0.1,1.3,0,1.9c0.5,8.2,1.6,16.5-4.3,23.5c-1.2,0.7-2.5,1.4-3.7,2.1c3.4,1.6,6.9,3.2,10.3,4.8
	c4.9,6.5,5.7,13.1,0,19.6C405.8,248.3,398.2,247.3,390.6,246.3"/>
<path class="st8" d="M229.1,335.1c3.9,3.8,2.7,7.3-0.1,11.4c-6.6,9.9-12.8,20.1-19.2,30.2c-8.1,12.9-17.5,14.2-29.4,4.3
	c-2.5-2.1-3.8-3.7-1.9-6.5c10.1-15.3,20.3-30.7,30.7-45.9c0.8-1.1,4.1-0.5,6.2-0.7C221,328.5,225.8,330.4,229.1,335.1"/>
<path class="st9" d="M152.7,255.3c-1.1,7.6-7.5,6.5-12.5,7.6c-15.2,3.2-30.4,6.3-45.6,9.4c-9.8,3.4-13.8,0.6-9.2-9.4
	c3.7-8.1,10.9-12.7,18.6-16.6c11.3-3,22.6-5.9,33.9-8.9c3.7-1,7.4-1.9,9.3,2.8C152.7,243.9,152.9,249.5,152.7,255.3"/>
<path class="st10" d="M311.4,354.2c0,17.5,0,35,0,52.5c-3.4,2.4-7.4,1.1-11.1,1.6c-10.5,1.5-15-2.5-13.7-13.4
	c0.8-7,0.1-14.1,0.2-21.1C287,353.7,290.5,350.8,311.4,354.2"/>
<path class="st11" d="M269.8,350.4c-2.7,13.3-4.9,26.8-8.2,40c-3.7,14.7-13.7,18.2-27.2,11c-3.5-1.8-4.9-3.6-3.5-7.5
	c2-5.6,3.7-11.3,5.6-16.9C245.6,365.7,253.9,353.3,269.8,350.4"/>
<path class="st12" d="M104,246.3c-5,5.6-10.3,11-14.9,17c-5.1,6.7-2.2,9.5,5.5,9c-19.4,5.8-39.4,15.7-56-9.5
	C60.6,256.1,82,249.9,104,246.3"/>
<path class="st13" d="M417.1,307.2c10.8,13,26.7,20.1,38.4,32c3.2,3.2,13,4.9,5.8,12.9c-5.5,6.1-10.6,9.2-18.4,1
	c-12.3-12.8-26.2-24.2-39.4-36.1C405.3,310.1,409.9,306.9,417.1,307.2"/>
<path class="st14" d="M577,206.6c1.6,4.2,1,8.3-0.1,12.4c-26.1-0.5-52.3-1-78.4-1.5c-6.8-2.3-6-6.4-2.8-11.1
	c15.1-0.1,30.2-0.2,45.2-0.3C553,204.3,565,203.7,577,206.6"/>
<path class="st15" d="M440,278.3c18.2,8.8,37.4,15.8,54.2,27.2c2.9,2,11.8,2.1,5.9,9.7c-3.4,4.5-6.8,7.6-13.5,3.7
	c-17.7-10.4-35.9-20-53.9-29.9C431.5,283,432.6,278.5,440,278.3"/>
<path class="st16" d="M369.7,338.2c-7.5-13-17.6-24.5-22.6-38.9c-0.4-8.8-4.8-19.2,9.4-21.6c1.8,1.2,2.2,2.8,1,4.7
	c7.5,17.4,23.8,29.5,29.3,48C383.1,337,377.7,340.5,369.7,338.2"/>
<path class="st17" d="M22,222.8c0.2-6.5,0.5-13,0.7-19.5c18-3.8,36.2-0.7,54.3-1.7c5.8,0.2,5.4,3.6,3.7,7.4
	c-2.7,5.9-7.9,9.6-12.8,13.6C52.6,222.7,37.3,222.8,22,222.8"/>
<path class="st18" d="M354.1,357.5c0.6,12.1,7.9,21.9,11.7,33c2.4,7,0.6,10.7-6.1,11.5c-6,0.7-14.5,7.9-17.3-3.5
	c-2.6-10.4-8.5-20-7.8-31.2C339.1,360.2,343.9,353.5,354.1,357.5"/>
<path class="st13" d="M393.3,341.1c7.3,10.1,14.7,20,21.7,30.2c2.1,3,7.1,7.2,0.1,10.2c-5.3,2.3-11.1,10.3-16.8,1.9
	c-6.4-9.2-14.2-17.7-18-28.6C377.8,343.9,381.4,338.5,393.3,341.1"/>
<path class="st19" d="M265.3,252.6c-6,10.8,6,17.2,6.5,26.4c-11.2,5.5-16.3,16.6-23.4,25.8c-7,0.3-10.7-2.6-9.5-10
	c5.5-9.7,10.9-19.4,16.4-29.1c0.4-6.7-13.1-14.1,1-20.2c1.2-0.7,2.4-0.9,3.7-0.5c2.5,0.9,4.9,2,6.5,4.3
	C266.9,250.7,266.5,251.8,265.3,252.6"/>
<path class="st20" d="M413.5,249.2c0-6.5,0-13.1,0-19.6c10.7,2.1,21.3,4.5,32,6.2c5.9,0.9,8.5,3.7,8.4,9.5c1.7,4.6-1.3,7.5-3.9,10.5
	C436.6,260.2,425.2,253.8,413.5,249.2"/>
<path class="st21" d="M440,278.3c-2.4,3.6-4.9,7.2-7.3,10.7c-13.7-1.4-24.3-9.8-35.8-16.2c0.1-6.7,0.2-13.4,0.2-20.1
	C410.3,262.9,430.2,262.1,440,278.3"/>
<path class="st22" d="M357.5,278.7c-11.6,2.8-3.7,15.3-10.3,20.6c-3.2-3.9-6.4-7.9-9.6-11.8c-3.3-9.7-6.6-19.3-9.9-29
	c-0.8-1.4-0.8-2.7,0.1-4c3.3-3.1,6.8-5.9,11.2-7.3c1.6-0.2,3.1,0,4.6,0.4C353.4,255.7,355.4,267.2,357.5,278.7"/>
<path class="st13" d="M506,255.6c15.7,3.4,31.4,6.8,47.9,10.5c-4.9,9.2-10.2,13.5-20.8,9.9c-13.3-4.4-27.1-7.3-40.7-10.9
	C487.6,248.6,499,255.2,506,255.6"/>
<path class="st23" d="M357.5,278.7c-9.5-7.6-6.5-22-16.2-29.5c-2.6-2.9-0.4-5.1,1-7.5c1.3-1.7,2.7-3.2,4.1-4.8
	c2.4-2.6,3.8-5.8,5.6-8.8c1.4-1.7,3-3.2,5.4-1.9c5.9,11.6,1,27.3,13.4,36.5c0,0.9,0.1,1.8,0.3,2.6c-0.6,6.2-2.2,11.9-7.1,16.3
	c-2.2,0.2-4.3,0.5-6.4,0.7C357.6,281.2,357.6,279.9,357.5,278.7"/>
<path class="st24" d="M417.1,307.2c-4.6,3.3-9.1,6.5-13.7,9.8c-10-6.9-18.6-15.3-26.4-24.5c-1.5-7.8,0.6-13.1,9.5-13.6
	C394.8,290.3,411.8,292.4,417.1,307.2"/>
<path class="st25" d="M142.9,203.3c0.6,0.9,0.9,1.9,1,3c3.1,4.4,3.4,8.8,0,13.2c-13.9,7.7-28.7,2.4-43.1,3.2
	c-3.6-11.3,4.1-16.2,12-21C122.9,202.4,133.1,199.8,142.9,203.3"/>
<path class="st26" d="M206.1,229.1c1.1,4.3,2.3,8.6,3.4,12.9c-12.9,2.5-25.9,4.9-38.9,7.4c-8.1,1.6-16.3,3.5-13.8-9.7
	C173.3,236.3,189,229.4,206.1,229.1"/>
<path class="st27" d="M110.7,203.4c0.4,8.3-10.3,11-9.9,19.3c-11,0-21.9,0-32.9,0c0.4-9.2,10-12,13.2-19.3
	C91,200.6,100.8,200.6,110.7,203.4"/>
<path class="st28" d="M238.9,294.8c2,4.4,5.3,7.7,9.5,10c-3.3,12.1-16.6,17.8-19.3,30.3c-5.6-0.2-10.8-1.4-13.6-7
	C223.3,317,231.1,305.9,238.9,294.8"/>
<path class="st29" d="M506,255.6c-6.5,0.3-14.5-1.3-13.6,9.5c-14.2-3.1-28.3-6.2-42.5-9.4c-0.8-4.2,1.7-7.3,3.9-10.5
	C471.7,246.4,488.8,251.6,506,255.6"/>
<path class="st30" d="M495.7,206.5c-0.2,4-0.1,7.9,2.8,11.1c-13.8,0.6-27.6,1.2-41.4,1.8c-5.5-5-5.4-10.1-0.2-15.3
	C469.7,208.5,482.9,204.2,495.7,206.5"/>
<path class="st31" d="M269.8,350.4c-12.2,7.6-20.4,20.1-33.3,26.7c5-11,0.7-26.4,15.5-32.8c4.9,3.7,10.5,3.7,16.3,3.4
	C269,348.5,269.5,349.4,269.8,350.4"/>
<path class="st32" d="M457,204.1c0.1,5.1,0.1,10.2,0.2,15.3c-5.8,7.5-13.6,2.9-20.6,3.3c-5.7-7.5-5.7-14.9,0-22.4
	C443.5,200.7,451.4,195.9,457,204.1"/>
<path class="st33" d="M222.6,273c0.5,4.9-2,11.2,6.1,12.2c-5,9.6-15.1,13.3-22.9,19.7c-11,1.9-8.8-4.5-6.7-10.8
	C206,286,213.7,278.8,222.6,273"/>
<path class="st26" d="M170,286.5c-1.2-1.4-2.4-2.7-3.6-4.1c-1.9-4.5,1.4-7.5,3.3-10.9c8.1-5.6,16.6-10.5,26.5-12.1
	c2.9,4.2-0.2,9,1.1,13.3C188.2,277.3,179.1,281.9,170,286.5"/>
<path class="st34" d="M436.5,200.2c0,7.5,0,14.9,0,22.4c-5.5,0-11,0-16.5,0c-5.7-7.5-5.7-14.9,0-22.4
	C425.5,200.2,431,200.2,436.5,200.2"/>
<path class="st35" d="M311.4,354.2c-23,0.5-22.3,1.2-23.4,36.6c-0.7,20.9,12.6,15.1,23.5,15.9c-22.1,7.7-25.9,5.3-25.9-16.2
	c0-9.7,0-19.4,0-29.1c0-5-0.2-10,6.6-10.7c0.9-0.1,1.9-0.2,2.8-0.3c1.3-1.2,2.4-1,3.3,0.5c2.2-0.1,4.4-0.1,6.5-0.2
	c1.1-1.5,2.2-1.5,3.3,0C309.2,351.9,310.3,353.1,311.4,354.2"/>
<path class="st36" d="M197.3,272.7c-6.9-3.9-3.2-8.7-1.1-13.3c6.2-4.1,11.2-10.6,19.8-9.8c0.4,5.8,3.2,9.1,9.3,9.2
	C216,263.4,206.6,268,197.3,272.7"/>
<path class="st10" d="M354.1,357.5c-7.8,0.7-12.4,7.8-19.5,9.8c-1.9-6.5-9.4-13-0.3-19.7c5.2,1,9.6-1.4,14-3.5
	C352.5,347.6,354,352.2,354.1,357.5"/>
<path class="st37" d="M160.1,206.8c8.8,0,17.5,0,26.3,0c3.4,4.1,3.5,8.2,0,12.3c-8.8,0-17.5,0-26.3-0.1
	C156.6,215,156.6,210.9,160.1,206.8"/>
<path class="st38" d="M386.5,278.9c-5.5,2.9-6.8,8.8-9.5,13.6c-4.3-3.6-8.6-7.2-12.8-10.9c-0.1-6.5,1.5-12.3,7.1-16.3
	C376.3,269.9,381.4,274.4,386.5,278.9"/>
<path class="st39" d="M420,200.2c0,7.5,0,14.9,0,22.4c-4.4,0-8.8,0.1-13.2,0.1c1.4-7.8-3.5-16.8,4.3-23.5
	C414.2,199.6,417.1,199.9,420,200.2"/>
<path class="st18" d="M393.3,341.1c-8,1.1-12,6-13,13.8c-5.2-4.5-8.5-10.2-10.5-16.7c5.8-2.6,11.5-5.2,17.3-7.8
	C390.2,333.3,392.9,336.6,393.3,341.1"/>
<path class="st40" d="M186.4,219.2c0-4.1,0-8.2,0-12.3c6.6,0,13.2,0,19.7,0c3.4,4.1,3.9,8.4,0.9,12.9c-3.5,2.1-7.1,1.8-10.8,0.4
	C193,219.8,189.7,219.5,186.4,219.2"/>
<path class="st41" d="M160.1,206.8c0,4.1,0,8.2,0,12.3c-5.4,0.1-10.8,0.2-16.2,0.4c0-4.4,0-8.8,0-13.2
	C149.3,206.5,154.7,206.6,160.1,206.8"/>
<path class="st42" d="M199.2,294.2c0.5,4.6-0.4,10.2,6.7,10.8c-1.1,5.2-6,7.1-9.3,10.4c-4.7-2.2-8.1-5.7-10.7-10.1
	C190.3,301.6,194.7,297.9,199.2,294.2"/>
<path class="st43" d="M156.8,239.7c0.6,8.9,7.1,9.5,13.8,9.7c-6,2-11.9,3.9-17.9,5.9c-1.8-5-3.7-10.1-5.5-15.1
	C150.4,240,153.6,239.9,156.8,239.7"/>
<path class="st44" d="M308.1,350.8c-1.1,0-2.2,0-3.3,0c1.3-10.8-2.8-22.1,2.8-32.5C307.8,329.1,307.9,339.9,308.1,350.8"/>
<path class="st45" d="M169.7,271.5c-1.1,3.6-2.2,7.3-3.3,10.9c-1.3-2.4-2.6-4.7-4-7.1C164.8,274,167.3,272.7,169.7,271.5"/>
<path class="st46" d="M258.7,124.1c-2.6-10.4-4.9-20.9-7.9-31.3c-1.5-5.3-4-10.2,0.7-15c4.2-3.9,8.9-5.2,14.4-3.3
	c16.3,6,10.7,22.2,15.7,33.5c-3.1,17.5-4.8,34.9,4,51.5c0.7,8.7-7,8.1-11.8,10.7c-3.3,1-6.5,1.8-10,1.5c-9.4-3.5-9.6-11.5-7.8-18.9
	C258.1,143.3,257.6,133.7,258.7,124.1"/>
<path class="st47" d="M308.1,71.5c5.1,2.1,4,6.3,3.3,10.2c-2.7,13.3-2.2,26.5,0.4,39.9c2.3,12.1,3.8,24.6-2.8,36.3
	c-15.7,4.6-20.2,2.4-21.9-12.6c-0.9-8.3-4-17,1-25.1c2.3-16.1-4.3-32.9,3.6-48.6C297.2,67.5,302.6,67.4,308.1,71.5"/>
<path class="st48" d="M258.7,124.1c4.6,7.7,7,14.9,1.9,24.2c-3.8,6.9-4.4,16,3.9,22c2.2,2,0.8,3.7-0.5,5.4c-3.8,3.1-7,7.3-12.4,7.7
	c-8.9-6.5-7-14.9-3.5-23.2c1.4-3.3,5.6-5.8,1.1-9.6c-3-1.3-5.6-3-6-6.6c-3.6-6.5-7.2-13-10.8-19.5c-0.8-6.3-1.9-12.7,0.7-18.8
	c2.2-5.2,5.3-6.7,8.9-1C248.2,110.6,248.3,121.7,258.7,124.1"/>
<path class="st49" d="M214.3,94.8c-8.7-13.1-17.7-26.1-26-39.5c-2.5-4-8.6-8.8-2.1-14.1c6.5-5.3,11.1-0.7,14.9,4.4
	c10.5,13.9,20.8,27.8,31.1,41.7C228,93.8,221.5,95.3,214.3,94.8"/>
<path class="st50" d="M147.2,183.7c-10.5,6.5-19.3-2.6-29-3.4c-5.8-0.5-11.6-2.5-17.3-3.9c-4.8-10.5,5.4-13.4,9.8-19.2
	c10.1,5.5,21.9,1.6,32.3,6.1c3.4,1.5,7.3,1.4,7.9,6.2C153.4,175.3,151.2,179.7,147.2,183.7"/>
<path class="st51" d="M308.1,71.5c-5.5,0-10.9,0-16.4,0c0.1-18.4,0.2-36.7,0.3-55.1c5.2,0.1,10.4,0.2,15.6,0.3
	C307.7,35,307.9,53.3,308.1,71.5"/>
<path class="st52" d="M170.1,107.9c-9.6-8.9-19.2-17.8-28.9-26.5c-4.6-4.2-5-7.8-0.1-12.1c3.8-3.3,6.8-4.8,11.2-0.8
	c10,9.2,20.3,18,30.5,26.9C183.1,104.1,179,108.3,170.1,107.9"/>
<path class="st53" d="M265.8,74.5c-4.5,2.5-9.1,4.3-14.4,3.3c-4.3-14.6-8.7-29.2-12.7-43.9c-1-3.8-6.7-9.6,2.3-11.4
	c5.5-1.1,9.4,1.2,11.1,7C256.7,44.5,261.3,59.5,265.8,74.5"/>
<path class="st54" d="M84.1,171.2c-13.6-3.4-27.3-6.7-41.1-10.1c6.8-19.1,17.9-14.9,51.3-7.5C96,162.4,89.7,166.6,84.1,171.2"/>
<path class="st55" d="M117.8,107.6c12.3,8,27.7,10.1,39,20c-4.2,5.9-9.7,10.3-16.5,13c-9.9-5.2-19.9-10.5-29.8-15.7
	C103.3,115.1,106.9,109.8,117.8,107.6"/>
<path class="st56" d="M288.1,120.2c1.4,7.2,4.9,14.1,3.6,21.8c-2.3,13.5,4.8,16.8,16.5,15.3c4.3,0.4,4.9,2.1,1.8,5.1
	c-8.5,3.5-16.9,4.4-24.7-1.8c-4.8-0.3-9.2-2.4-9.4-7.3c-0.4-14,0.1-28,0.6-42c0-1.1,3.3-2.2,5.1-3.2
	C283,112.4,281.1,118.7,288.1,120.2"/>
<path class="st57" d="M235.4,144.2c-4,4.7-4.9,10.6-6.2,16.3c-3.8,1.9-5-1-6.5-3.4c-5.5-5.4-11.1-10.8-16.6-16.1
	c-4.3-8-5.9-15.6,3.8-21.1C218.4,128,226.9,136.1,235.4,144.2"/>
<path class="st57" d="M214.3,94.8c5.5-3.7,11.3-6.7,18-7.5c4.4,5.2,9,10.2,9.8,17.4c-3.2-1.1-6.4-2.2-6.2,3.2
	c0.2,5.9-0.2,11.6-3.4,16.7C225.1,115.4,218.5,105.8,214.3,94.8"/>
<path class="st57" d="M230,163.8c4.8,8-5.4,12.9-4.3,20.1c-8.7-4.7-17.4-9.5-26.1-14.3c-3.4-6.5-7-13,3.8-16.1
	c5.3,3.1,10.5,6.1,15.8,9.2C223,161,226.4,163.4,230,163.8"/>
<path class="st42" d="M203.4,153.6c-6.1,4.2-3.2,10.6-3.8,16.1c-9.2-4.3-19.3-6.9-26.8-14.4c-3.4-6.3-5.1-12.5,0.7-18.4
	C183.4,142.5,193.4,148,203.4,153.6"/>
<path class="st58" d="M160.1,173.6c13.5,3.1,26.9,6.3,40.4,9.4c-0.7,5.2-3.3,9-7.8,11.6c-10.8-2.7-21.7-5.5-32.5-8.2
	C156.4,182.1,156.7,177.8,160.1,173.6"/>
<path class="st59" d="M192.6,194.5c0.3-5.4,2.7-9.4,7.8-11.6c8.2,3.3,16.7,3.8,25.4,3.6c0,5.5,0.1,11,0.1,16.5
	C214.8,200.2,203.7,197.4,192.6,194.5"/>
<path class="st60" d="M140.4,140.6c4.2-6,8.2-12.2,16.5-13c5.1,0.9,9.6,2.8,12.9,6.8c1.1,7.7-3.1,12.2-9.3,15.5
	C152.1,150.5,146.6,144.6,140.4,140.6"/>
<path class="st61" d="M110.7,203.4c-9.9,0-19.7,0-29.6,0c-19.5,0-38.9-0.1-58.4-0.1c-0.2-0.9-0.3-1.8-0.1-2.8
	c36.1-0.1,72.2-0.2,108.4-0.2c4.1,0,8.9-1.8,12,2.9C132.2,203.3,121.5,203.3,110.7,203.4"/>
<path class="st62" d="M84.1,171.2c-0.4-8.1,7.7-11.2,10.3-17.6c5.4,1.2,10.9,2.4,16.3,3.6c0.6,8.4-10.1,11-9.8,19.2
	C95.3,174.7,89.7,173,84.1,171.2"/>
<path class="st63" d="M170.1,107.9c5.4-3,9.6-7.3,12.7-12.5c5.7,2.8,9.9,7.2,13.6,12.2c-1.8,7.1-6.6,11.1-13.4,12.9
	C177.6,117.4,173.3,113.2,170.1,107.9"/>
<path class="st64" d="M117.8,107.6c-4.4,4.9-10.9,9-7.3,17.3c-6.9-2.9-13.7-6-18.9-11.8C98.9,103.1,106.6,96.6,117.8,107.6"/>
<path class="st59" d="M225.9,219.1c-6.6,0-13.2-0.1-19.8-0.1c0-4.1,0-8.1,0-12.2c6.6-0.1,13.2-0.2,19.7-0.3
	C225.9,210.7,225.9,214.9,225.9,219.1"/>
<path class="st65" d="M183,120.4c4.5-4.3,8.9-8.6,13.4-12.9c2.9,1.7,6,3.2,6.2,7.1c-1.2,6.1,0.4,13.2-6.6,17
	C191.7,127.9,187.4,124.1,183,120.4"/>
<path class="st36" d="M196.1,131.6c1.4-6,2.3-12.2,6.6-17c2.4,1.8,4.8,3.5,7.2,5.3c-4,6.5-4.1,13.8-3.8,21.1
	C202.7,137.8,199.4,134.7,196.1,131.6"/>
<path class="st66" d="M160.5,149.9c3.1-5.2,6.2-10.3,9.3-15.5c1.2,0.8,2.4,1.6,3.6,2.4c-0.2,6.1-0.4,12.3-0.7,18.4
	C168.7,153.5,164.6,151.7,160.5,149.9"/>
<path class="st43" d="M160.1,173.6c0,4.3,0,8.5,0,12.8c-4.9,1.9-8.3-3.1-12.9-2.6c1.2-4.7,2.4-9.4,3.7-14.1
	C153.4,172.1,156.4,173.7,160.1,173.6"/>
<path class="st67" d="M374,127.7c-9.2,6.3-9.3,15.6-10.3,25.7c-1.3,14.4,7.2,30.5-6.1,43.2c-1.4-0.2-2.7-0.8-3.9-1.6
	c-1.1-1-2-2.1-2.8-3.3c-2.1-3.1-4.6-5.9-6.8-9c-1.9-2.9-2.8-6.1-2.8-9.6c1.6-14.6,2.5-29.1,0.3-43.7c-0.8-5.3-1.8-10.8,2.9-15.2
	c10.4-6.5,11.2-21.5,23.3-26.5c7.4-2.5,12.6,0.8,17,6.3c5.3,7.2-1,11.3-4.4,16c-2.3,3.2-6.4,5.7-2.8,10.4
	C376.4,122.8,375.2,125.3,374,127.7"/>
<path class="st68" d="M450.5,169.6c28.1-6.8,56.3-13.2,84.2-20.6c8.8-2.3,14.8-0.9,20.3,8.2c-33,9.5-65.6,17.2-98.6,23.3
	C449.2,179.7,447.2,176,450.5,169.6"/>
<path class="st22" d="M344.5,114.2c2.3,20.9,6.6,41.7-0.1,62.6c-1.5,1.2-3.1,1.5-4.9,0.7c-5.8-3.4-9.8-8-10.8-14.9
	c1.3-24.5,1.2-49,0.5-73.4c-0.1-4.8-1.6-9.8,1.8-14.2l0-0.8c6.4-1.9,12.2-1.2,17.2,3.6c6.5,1.7,4.3,5.9,3.1,10.2
	C348.9,96.6,346.8,105.4,344.5,114.2"/>
<path class="st1" d="M331,75c5.4,30.5,5.6,61,0,91.6c-0.8,0.3-1.7,0.7-2.5,1c-2.8-0.4-5.1-1.7-7-3.8c-8.1-14.7-3.2-31.5-7.8-46.7
	C320.3,103.3,317.2,85.7,331,75"/>
<path class="st69" d="M433.1,135.9c17.8-9.2,35.7-18.3,53.4-27.8c5.7-3,11.9-5.7,15.5,1.2c4,7.7-4.8,7.6-8.5,9.7
	c-17.4,9.9-35.2,19.3-52.8,28.8C434.6,146,430.4,143.1,433.1,135.9"/>
<path class="st12" d="M348.2,77.7c-6.3,1.6-11.6-1.7-17.2-3.6c5.3-14.9,10.8-29.7,15.6-44.7c2-6.3,4.1-9.3,11.4-7.2
	c8.5,2.4,4.2,7.4,3,11.5C357,48.4,352.6,63,348.2,77.7"/>
<path class="st70" d="M384.8,94c-5.7-2.1-11.3-4.2-17-6.3c13-9,18-24.1,27.2-35.9c2.7-3.4,4.8-7.3,7.6-10.6
	c3.1-3.7,6.8-2.2,10.3-0.2c4.9,2.9,2.9,6,0.6,9.4C403.9,64.9,394.4,79.5,384.8,94"/>
<path class="st71" d="M406.9,107.5c13.5-11.8,27-23.7,40.5-35.6c3.7-3.3,6.9-7,12.2-1.8c5.9,5.8,1,8.9-2.6,11.7
	c-13.9,10.5-24.6,24.7-39.7,33.7C411.4,115.9,406.1,115.6,406.9,107.5"/>
<path class="st20" d="M450.5,169.6c0.8,4.3,1.7,8.5,5.9,11c-6,15.5-20.7,10.2-32,13.3c-13.8-0.7-11.4-10.4-10.8-19.2
	c2.4-9.5,11.4-4.4,16.7-7.4C436.8,169.8,444.9,158.2,450.5,169.6"/>
<path class="st21" d="M433.1,135.9c2.5,4,5,8,7.5,12c1.8,13.3-12.6,9.6-17.1,16.2c-3.8,3.3-8.1,5.7-12.7,7.6
	c-1.5,0.2-2.8-0.2-3.8-1.3c0-8.6,0-17.2,0-25.8C415.3,140.6,421.9,131.4,433.1,135.9"/>
<path class="st72" d="M406.9,107.5c3.5,2.7,6.9,5.3,10.4,8c3.1,5,4.3,9.3-1.8,13.6c-6.5,4.5-12.4,10-18.6,15
	c-12.5-5.5-3.5-18.9-9.9-26.6C392.8,112.5,396,102.5,406.9,107.5"/>
<path class="st73" d="M313.7,117c7.5,5.4,7.6,13.4,7.7,21.5c0.1,8.4-1.9,17.1,3.2,24.9c-5.8,4.2-9.7,1.5-13.2-3.4
	c-1.1-1-2.2-1.9-3.3-2.8c0-20.1-0.1-40.1,0.1-60.2c0-5.2-1.8-11,3.1-15.3C313.7,93.4,309.7,105.5,313.7,117"/>
<path class="st39" d="M406.9,170.4c1.2,0,2.5-0.1,3.7-0.1c3.2-1.5,4.6,0.9,6,3c0.7,7.6-2.4,16.6,7.8,20.7c-3.7,3.5-8.5,3.3-13.1,3.5
	C405.9,189,402.6,180.3,406.9,170.4"/>
<path class="st74" d="M577,206.6c-12-0.1-24-0.3-36-0.4c11.7-4.4,24-1.1,36-2.3C577.1,204.7,577.2,205.7,577,206.6"/>
<path class="st75" d="M341.8,176.6c0.9,0,1.7,0,2.6,0.2c1.1,2.2,2.3,4.3,3.4,6.5c0,6-4.7,7.2-8.9,7.4c-26.7,1-53.3,1.4-80-0.2
	c-2.8-0.2-5.1-1.7-7-3.8c0-1.1,0-2.2-0.3-3.2c2.8-4,6-7.5,10.6-9.5C288.8,173,315.5,169,341.8,176.6"/>
<path class="st76" d="M245.3,216.7c-3.3-3.4-3.5-6.9-0.1-10.4c1.4-0.9,2.6-2.3,4.2-2.5c35.8-2.5,71.6-4.7,107.3,1.1
	c2.9,2.6,2.6,5.6,1,8.7c-3.5,3.2-7.9,3.8-12.3,3.8C312.1,217.3,278.7,218.7,245.3,216.7"/>
<path class="st77" d="M357.5,206.5c-37.4,0-74.9-0.1-112.3-0.2c0.2-2.1,0.4-4.3,0.6-6.4c6.4-5.6,14.3-4.3,21.9-4.6
	c28.8-1,57.8,2.1,86.6-2c1.1,1.1,2.2,2.2,3.3,3.3c0.1,1.2,0.2,2.3,0.4,3.5C359.3,202.3,359.4,204.5,357.5,206.5"/>
<path class="st78" d="M245.3,216.7c4.6-5.7,11.1-3.6,16.9-3.6c31.8-0.2,63.6-0.1,95.4-0.1c1.7,3.2,2,6-1.7,8.1
	c-11.3,5.5-23.4,2.7-35.2,3c-18.9,0.5-37.9,0.2-56.8,0.1c-6.5,0-13.1,0.2-18.4-4.6C245.3,218.7,245.2,217.7,245.3,216.7"/>
<path class="st79" d="M357.5,226.2c-1.1,1.1-2.2,2.2-3.3,3.3c-2,0.9,0.8,0.6-1.3,0.9c-34.9,5.8-69.7,6.7-104.5-0.7
	c-2.5-1.6-2.6-4.2-2.5-6.8c37-2.7,74.1-2.5,111.1-0.2C357.1,223.9,357.3,225,357.5,226.2"/>
<path class="st80" d="M354.2,193.4c-1.6,9-8.7,6.4-14.2,6.5c-31.4,0.2-62.8,0.1-94.2,0.1c-0.1-2.7,0.3-5.1,2.8-6.7
	c5.2-3.9,11.3-3.1,17.2-3.1c24.3-0.1,48.7-0.1,73,0C344.1,190.1,349.7,189.1,354.2,193.4L354.2,193.4z"/>
<path class="st81" d="M354.2,193.4c-35.2,0-70.4-0.1-105.6-0.1c1.1-2.2,2.2-4.3,3.3-6.5c26.8,0,53.7,0.1,80.6,0
	c5.3,0,11.1,1.8,15.3-3.4C351.9,185.4,354.1,188.7,354.2,193.4"/>
<path class="st82" d="M248.3,229.7c35.3-0.1,70.6-0.1,105.8-0.2c-0.1,4.7-2.4,7.9-6.3,10.2c-26.2,1.8-52.5,0.6-78.8,0.9
	c-6.2,0.1-11.9-1.3-17.2-4.5C250.7,234,249.5,231.8,248.3,229.7"/>
<path class="st83" d="M251.9,236.1c27,0,54-0.1,81,0c5.2,0,11-1.7,15,3.6c-1,1.1-1.9,2.1-2.9,3.1c-28.4,8.3-57.3,3.9-86,2.7
	c-0.9,0-1.8,0-2.8,0C254.8,242.4,253.4,239.3,251.9,236.1"/>
<path class="st84" d="M357,222.8c-37,0-74.1,0.1-111.1,0.2c-0.1-1.1-0.2-2.2-0.3-3.3h111.8c1,0.6,1.4,1.2,1.2,2
	c-0.2,0.8-0.4,1.2-0.6,1.2L357,222.8z"/>
<path class="st44" d="M298.3,350.9c-1.1-0.2-2.2-0.3-3.3-0.5c0-22,0-44.1,0-66.1c0-6.5,0.3-12.9-3.3-18.7c9,1.5,6.4,8.7,6.5,14.1
	C298.4,303.5,298.3,327.2,298.3,350.9"/>
<path class="st85" d="M328.1,255.8c-0.2,0.9-0.3,1.8-0.4,2.7c-11.8,3.6-23.9,4.3-36,4.2c-5.7-2-12.1-2.5-16.9-6.9
	C292.6,248.3,310.3,248.4,328.1,255.8"/>
<path class="st23" d="M357.9,222.9c-0.2-1.1-0.4-2.2-0.6-3.3c0.1-2.2,0.2-4.4,0.3-6.6c0-2.2-0.1-4.4-0.1-6.6
	c0.1-2.1,0.3-4.3,0.4-6.4C362.4,207.7,362.3,215.3,357.9,222.9"/>
<path class="st86" d="M328.1,255.8c-17.8,0-35.5,0.1-53.3,0.1c-3.2-1.1-6.3-2.2-9.5-3.3c-0.3-1-0.5-2.1-0.7-3.1
	c24.5-6,49.1-5.8,73.7-0.1C335.9,253.2,332.7,255.6,328.1,255.8"/>
<path class="st87" d="M338.3,249.4c-24.6,0-49.1,0.1-73.7,0.1c-2.6-0.4-4.6-1.4-5.6-4c16.9-6.5,34.4-1.7,51.6-2.8
	c11.4-0.7,22.9,0,34.4,0.1c-1.2,2.1-2.4,4.3-3.7,6.4C340.3,249.3,339.3,249.3,338.3,249.4"/>
<path class="st88" d="M341.8,176.6c-26.5-0.7-53.2,4.2-79.6-2.6c0.8-1.2,1.5-2.5,2.3-3.7c1.8-2.7,4.6-3.1,7.6-2.9
	c19.7-2.2,39.4-2.5,59,0.3l-0.1-1.2C334.7,169.9,338.2,173.3,341.8,176.6"/>
<path class="st89" d="M331.1,167.7c-19.7,4.2-39.4,4.6-59-0.3c4.4-2.3,8.7-4.6,13.1-6.9c8.7-0.2,17.5-0.3,26.2-0.5
	c4.4,1.1,8.8,2.3,13.2,3.4C326.8,164.9,329,166.3,331.1,167.7"/>
<rect x="669.5" y="60.7" class="st90" width="54.5" height="192.6"/>
<polygon class="st90" points="762.8,60.8 817.3,60.8 817.3,210.1 909.2,210.1 909.2,253.3 762.8,253.3 "/>
<rect x="930.6" y="60.7" class="st90" width="54.5" height="192.6"/>
<path class="st90" d="M1046.2,251.4c-14.7-3.9-26.6-9-35.8-15.4l17.9-40.2c8.6,5.7,18.6,10.3,30,13.8c11.4,3.5,22.6,5.2,33.6,5.2
	c20.9,0,31.4-5.2,31.4-15.7c0-5.5-3-9.6-8.9-12.2c-6-2.7-15.5-5.5-28.8-8.4c-14.5-3.1-26.6-6.5-36.3-10c-9.7-3.6-18.1-9.3-25-17.2
	c-7-7.9-10.5-18.5-10.5-31.9c0-11.7,3.2-22.3,9.6-31.8c6.4-9.4,16-16.9,28.7-22.4c12.7-5.5,28.4-8.3,46.9-8.3
	c12.7,0,25.1,1.4,37.4,4.3c12.3,2.8,23.1,7,32.5,12.5l-16.8,40.4c-18.3-9.9-36.1-14.9-53.4-14.9c-10.8,0-18.7,1.6-23.7,4.8
	c-5,3.2-7.4,7.4-7.4,12.5c0,5.1,2.9,9,8.8,11.6c5.9,2.6,15.3,5.2,28.3,8c14.7,3.1,26.8,6.5,36.5,10c9.6,3.6,18,9.3,25,17.1
	c7.1,7.8,10.6,18.4,10.6,31.8c0,11.6-3.2,22-9.6,31.4c-6.4,9.4-16.1,16.8-28.9,22.4c-12.8,5.6-28.4,8.4-46.8,8.4
	C1076,257.2,1060.8,255.3,1046.2,251.4"/>
<path class="st90" d="M1325.4,205.2c7.9-4.6,14.1-11.1,18.7-19.4c4.6-8.3,6.9-17.9,6.9-28.7c0-10.8-2.3-20.4-6.9-28.7
	c-4.6-8.3-10.8-14.8-18.7-19.4c-7.9-4.6-16.7-6.9-26.4-6.9c-9.7,0-18.5,2.3-26.4,6.9c-7.9,4.6-14.1,11.1-18.7,19.4
	c-4.6,8.3-6.9,17.9-6.9,28.7c0,10.8,2.3,20.4,6.9,28.7c4.6,8.4,10.8,14.8,18.7,19.4c7.9,4.6,16.7,6.9,26.4,6.9
	C1308.7,212.1,1317.5,209.8,1325.4,205.2 M1244.1,244.3c-16.2-8.6-29-20.5-38.2-35.8c-9.3-15.2-13.9-32.4-13.9-51.4
	c0-19.1,4.6-36.2,13.9-51.4c9.3-15.2,22-27.1,38.2-35.8c16.2-8.6,34.5-12.9,54.9-12.9c20.4,0,38.7,4.3,54.9,12.9
	c16.2,8.6,29,20.5,38.2,35.8c9.3,15.2,13.9,32.4,13.9,51.4c0,19.1-4.6,36.2-13.9,51.4c-9.3,15.2-22,27.2-38.2,35.8
	c-16.2,8.6-34.5,12.9-54.9,12.9C1278.6,257.2,1260.3,252.9,1244.1,244.3"/>
<path class="st67" d="M701.7,300.5v54.7c0,2.3-0.4,4.4-1.2,6.4c-0.8,1.9-2,3.7-3.5,5.2c-1.5,1.5-3.3,2.7-5.3,3.6
	c-2,0.9-4.1,1.3-6.3,1.3s-4.3-0.4-6.3-1.3c-1.9-0.9-3.7-2-5.2-3.6c-1.5-1.5-2.7-3.3-3.6-5.2c-0.9-1.9-1.3-4.1-1.3-6.4v-54.7h10.1
	v53.7c0,2.5,0.6,4.4,1.8,5.6c1.2,1.2,2.7,1.8,4.5,1.8c1.8,0,3.3-0.6,4.5-1.8c1.2-1.2,1.8-3,1.8-5.6v-53.7H701.7z"/>
<path class="st67" d="M735.2,310v22h5.7c1.8,0,3.2-0.2,4.3-0.7c1.1-0.5,1.9-1.2,2.5-2.1c0.5-0.9,0.9-2.1,1.1-3.4
	c0.2-1.4,0.3-2.9,0.3-4.7c0-1.8-0.1-3.4-0.3-4.7c-0.2-1.4-0.6-2.5-1.2-3.5c-1.2-1.8-3.6-2.8-7.1-2.8H735.2z M725.1,371v-70.5h16.3
	c11.9,0,17.8,6.9,17.8,20.7c0,4.2-0.6,7.7-1.9,10.6c-1.3,2.9-3.6,5.2-6.8,7l10.9,32.2h-10.7l-9.4-30.1h-6V371H725.1z"/>
<path class="st67" d="M791.3,338.3v22.6h4.4c2,0,3.7-0.3,4.8-0.9c1.2-0.6,2-1.4,2.6-2.5c0.6-1.1,1-2.3,1.1-3.8
	c0.1-1.5,0.2-3,0.2-4.8c0-1.8-0.1-3.3-0.3-4.7c-0.2-1.3-0.6-2.4-1.2-3.4c-0.7-0.9-1.6-1.6-2.7-2c-1.1-0.4-2.6-0.6-4.5-0.6H791.3z
	 M791.3,310v19.4h4.6c3.4,0,5.6-0.8,6.8-2.5c1.2-1.7,1.7-4.1,1.7-7.4c0-3.2-0.6-5.6-1.9-7.1c-1.3-1.6-3.6-2.4-7-2.4H791.3z
	 M781.2,371v-70.5H796c3.2,0,6,0.5,8.3,1.5c2.3,1,4.1,2.3,5.6,4c1.5,1.7,2.5,3.5,3.1,5.7c0.6,2.2,0.9,4.4,0.9,6.7v2.6
	c0,1.9-0.1,3.5-0.4,4.9c-0.3,1.3-0.7,2.5-1.3,3.5c-1.1,1.8-2.8,3.4-5.2,4.8c2.4,1.1,4.1,2.8,5.3,5c1.1,2.2,1.7,5.2,1.7,8.9v4
	c0,6.2-1.5,11-4.5,14.3s-7.8,5-14.4,5H781.2z"/>
<path class="st67" d="M856.5,346.3l-5-25.6h-0.2l-5,25.6H856.5z M831.5,371l15.8-70.5h8.4l15.7,70.5h-10.1l-3-15.2h-13.8l-3,15.2
	H831.5z"/>
<polygon class="st67" points="889.9,371 889.9,300.5 899.6,300.5 914.9,343 915.1,343 915.1,300.5 925.2,300.5 925.2,371 915.7,371 
	900.2,328.6 900,328.6 900,371 "/>
<path class="st67" d="M990.6,310v24h4.9c2,0,3.6-0.3,4.8-0.9c1.1-0.6,1.9-1.4,2.5-2.5c0.5-1,0.8-2.2,0.9-3.7
	c0.1-1.5,0.2-3.1,0.2-4.9c0-1.7,0-3.2-0.1-4.7c-0.1-1.5-0.4-2.8-0.9-3.9c-0.5-1.1-1.3-2-2.4-2.6c-1.1-0.6-2.6-0.9-4.6-0.9H990.6z
	 M980.5,371v-70.5h15.2c2.8,0,5.2,0.4,7.3,1.1c2.1,0.7,4,2,5.8,3.9c1.7,1.8,2.9,4,3.6,6.5c0.7,2.5,1,5.8,1,10.1c0,3.2-0.2,5.8-0.5,8
	c-0.4,2.2-1.1,4.2-2.3,6.1c-1.4,2.3-3.2,4.1-5.5,5.4c-2.3,1.3-5.3,1.9-9.1,1.9h-5.2V371H980.5z"/>
<polygon class="st67" points="1034.7,371 1034.7,300.5 1044.8,300.5 1044.8,360.9 1064.8,360.9 1064.8,371 "/>
<path class="st67" d="M1105.6,346.3l-5-25.6h-0.2l-5,25.6H1105.6z M1080.6,371l15.8-70.5h8.4l15.7,70.5h-10.1l-3-15.2h-13.8l-3,15.2
	H1080.6z"/>
<polygon class="st67" points="1139,371 1139,300.5 1148.7,300.5 1164,343 1164.2,343 1164.2,300.5 1174.3,300.5 1174.3,371 
	1164.8,371 1149.3,328.6 1149.1,328.6 1149.1,371 "/>
<polygon class="st67" points="1196.9,371 1196.9,300.5 1206.6,300.5 1221.8,343 1222,343 1222,300.5 1232.1,300.5 1232.1,371 
	1222.6,371 1207.2,328.6 1207,328.6 1207,371 "/>
<polygon class="st67" points="1255.1,371 1255.1,300.5 1285.3,300.5 1285.3,310 1265.2,310 1265.2,330.7 1282.7,330.7 1282.7,340.2 
	1265.2,340.2 1265.2,360.9 1285.3,360.9 1285.3,371 "/>
<path class="st67" d="M1315.8,310v22h5.7c1.8,0,3.2-0.2,4.3-0.7c1.1-0.5,1.9-1.2,2.5-2.1c0.5-0.9,0.9-2.1,1.1-3.4
	c0.2-1.4,0.3-2.9,0.3-4.7c0-1.8-0.1-3.4-0.3-4.7c-0.2-1.4-0.6-2.5-1.2-3.5c-1.2-1.8-3.6-2.8-7.1-2.8H1315.8z M1305.7,371v-70.5h16.3
	c11.9,0,17.8,6.9,17.8,20.7c0,4.2-0.6,7.7-1.9,10.6c-1.3,2.9-3.6,5.2-6.8,7l10.9,32.2h-10.7l-9.4-30.1h-6V371H1305.7z"/>
<path class="st67" d="M1394.4,320.8h-10.1v-2.3c0-2.3-0.5-4.3-1.6-6c-1.1-1.7-2.9-2.5-5.5-2.5c-1.4,0-2.5,0.3-3.4,0.8
	c-0.9,0.5-1.6,1.2-2.1,2c-0.5,0.9-0.9,1.8-1.1,2.9c-0.2,1.1-0.3,2.2-0.3,3.4c0,1.4,0,2.5,0.1,3.5c0.1,0.9,0.3,1.7,0.7,2.5
	c0.4,0.7,1,1.4,1.7,1.9c0.8,0.5,1.8,1.1,3.1,1.6l7.7,3.1c2.2,0.9,4.1,1.9,5.5,3c1.4,1.2,2.5,2.5,3.3,4c0.7,1.6,1.2,3.4,1.5,5.4
	c0.3,2,0.4,4.3,0.4,6.9c0,3-0.3,5.7-0.9,8.3c-0.6,2.5-1.6,4.7-2.9,6.5c-1.4,1.8-3.2,3.3-5.4,4.4c-2.3,1.1-5,1.6-8.2,1.6
	c-2.4,0-4.7-0.4-6.8-1.3c-2.1-0.9-3.9-2-5.5-3.6c-1.5-1.5-2.7-3.3-3.6-5.3c-0.9-2-1.3-4.2-1.3-6.6v-3.8h10.1v3.2
	c0,1.9,0.5,3.5,1.6,5c1.1,1.5,2.9,2.2,5.5,2.2c1.7,0,3.1-0.2,4-0.7c1-0.5,1.7-1.2,2.2-2.1c0.5-0.9,0.8-2,0.9-3.3
	c0.1-1.3,0.1-2.7,0.1-4.3c0-1.9-0.1-3.4-0.2-4.6c-0.1-1.2-0.4-2.1-0.8-2.9c-0.5-0.7-1.1-1.3-1.8-1.8c-0.8-0.5-1.8-1-3-1.5l-7.2-3
	c-4.4-1.8-7.3-4.1-8.8-7.1c-1.5-2.9-2.2-6.6-2.2-11c0-2.6,0.4-5.2,1.1-7.5c0.7-2.4,1.8-4.4,3.3-6.1c1.4-1.7,3.2-3.1,5.3-4.1
	c2.1-1,4.7-1.5,7.7-1.5c2.5,0,4.8,0.5,6.9,1.4c2.1,0.9,3.9,2.2,5.4,3.7c3,3.2,4.6,6.8,4.6,10.9V320.8z"/>
</svg>
